<svg width="501" height="500" viewBox="0 0 501 500" fill="none" xmlns="http://www.w3.org/2000/svg">
<path d="M304.725 230.624C308.011 211.982 295.563 194.205 276.921 190.919C258.278 187.633 240.502 200.081 237.215 218.724C233.929 237.366 246.378 255.142 265.02 258.429C283.662 261.715 301.439 249.266 304.725 230.624Z" fill="#F8D372"/>
<path d="M269.077 252.389C253.795 251.341 242.214 238.056 243.262 222.773C244.31 207.491 257.595 195.911 272.877 196.958C288.159 198.006 299.74 211.291 298.692 226.572C297.644 241.856 284.359 253.436 269.077 252.389ZM272.786 198.274C258.23 197.276 245.575 208.306 244.577 222.864C243.579 237.42 254.61 250.076 269.168 251.073C283.725 252.072 296.379 241.04 297.377 226.483C298.374 211.925 287.343 199.272 272.786 198.274Z" fill="#241726"/>
<path d="M270.15 236.466C267.555 236.288 264.775 235.06 263.183 232.004L264.352 231.395C266.071 234.697 269.468 235.469 272.071 235.08C274.607 234.706 276.597 233.296 276.911 231.648C277.607 227.988 274.151 226.148 268.799 223.758C265.926 222.475 264.16 219.548 264.505 216.64C264.809 214.084 266.681 212.244 269.512 211.72C276.135 210.495 279.12 217.011 279.15 217.076L277.946 217.613C277.843 217.384 275.347 211.983 269.753 213.016C267.485 213.436 266.049 214.814 265.814 216.796C265.536 219.137 266.985 221.505 269.337 222.554C274.161 224.708 279.148 226.936 278.206 231.894C277.783 234.119 275.395 235.924 272.263 236.385C271.593 236.484 270.879 236.516 270.15 236.466Z" fill="#241726"/>
<path d="M271.686 208.481L269.553 239.596L270.868 239.686L273.001 208.571L271.686 208.481Z" fill="#241726"/>
<path d="M253.43 221.879C266.815 208.494 266.815 186.792 253.43 173.406C240.044 160.021 218.342 160.021 204.957 173.406C191.571 186.792 191.571 208.494 204.957 221.879C218.342 235.264 240.044 235.264 253.43 221.879Z" fill="#F8D372"/>
<path d="M234.492 224.913C219.455 227.833 204.846 217.976 201.925 202.938C199.004 187.902 208.861 173.293 223.898 170.372C238.935 167.451 253.544 177.309 256.465 192.345C259.386 207.383 249.529 221.992 234.492 224.913ZM224.15 171.666C209.826 174.448 200.436 188.363 203.219 202.687C206.001 217.01 219.917 226.4 234.24 223.618C248.564 220.836 257.953 206.919 255.171 192.596C252.389 178.273 238.473 168.884 224.15 171.666Z" fill="#241726"/>
<path d="M231.431 209.25C228.877 209.747 225.875 209.275 223.55 206.731L224.524 205.842C227.035 208.591 230.515 208.462 232.931 207.417C235.285 206.403 236.846 204.528 236.724 202.855C236.455 199.139 232.642 198.25 226.856 197.318C223.749 196.818 221.289 194.444 220.874 191.545C220.51 188.997 221.845 186.737 224.447 185.502C230.532 182.614 235.093 188.142 235.138 188.197L234.113 189.026C233.954 188.831 230.152 184.255 225.013 186.693C222.93 187.682 221.897 189.383 222.18 191.359C222.514 193.693 224.522 195.607 227.065 196.016C232.281 196.856 237.675 197.726 238.04 202.759C238.204 205.019 236.36 207.377 233.453 208.628C232.831 208.896 232.149 209.112 231.431 209.25Z" fill="#241726"/>
<path d="M227.018 181.567L225.724 181.819L231.671 212.434L232.965 212.183L227.018 181.567Z" fill="#241726"/>
<path d="M209 260.505C225.679 251.555 231.945 230.778 222.994 214.099C214.044 197.419 193.268 191.154 176.588 200.104C159.909 209.054 153.643 229.831 162.594 246.51C171.544 263.189 192.32 269.455 209 260.505Z" fill="#F8D372"/>
<path d="M203.418 255.977C189.262 261.829 172.985 255.074 167.132 240.917C161.28 226.762 168.035 210.484 182.191 204.631C196.347 198.779 212.625 205.535 218.477 219.69C224.33 233.847 217.575 250.125 203.418 255.977ZM182.695 205.85C169.211 211.425 162.776 226.93 168.351 240.414C173.925 253.898 189.431 260.333 202.915 254.759C216.399 249.184 222.834 233.678 217.259 220.194C211.684 206.709 196.179 200.275 182.695 205.85Z" fill="#241726"/>
<path d="M197.304 241.236C194.9 242.23 191.864 242.365 189.08 240.334L189.857 239.27C192.864 241.465 196.251 240.646 198.409 239.141C200.516 237.68 201.671 235.532 201.22 233.916C200.217 230.329 196.303 230.215 190.448 230.453C187.303 230.58 184.42 228.743 183.438 225.984C182.574 223.559 183.434 221.079 185.738 219.351C191.126 215.31 196.696 219.821 196.751 219.867L195.911 220.883C195.717 220.723 191.081 216.994 186.529 220.406C184.684 221.79 184.01 223.662 184.68 225.542C185.471 227.762 187.821 229.24 190.394 229.135C195.673 228.921 201.132 228.701 202.49 233.561C203.1 235.742 201.762 238.42 199.162 240.225C198.606 240.61 197.98 240.957 197.304 241.236Z" fill="#241726"/>
<path d="M187.462 214.988L186.244 215.491L198.16 244.31L199.378 243.807L187.462 214.988Z" fill="#241726"/>
<path d="M156.914 236.034L306.095 234.666C306.095 234.666 282.79 262.584 312.938 326.365C347.119 398.676 249.981 397.534 249.981 401.64C249.981 405.745 251.786 439.005 251.786 439.005L288.303 471.44L188.319 470.738L221.976 441.89L228.083 403.008C228.083 403.008 137.195 403.355 150.616 345.762C161.462 299.223 188.72 280.622 156.914 236.034Z" fill="#A5D5C9"/>
<path d="M198.947 293.227C198.947 293.227 154.521 224.569 114.134 286.88C73.7468 349.191 166.637 342.268 186.254 376.885L196.062 374.001C196.062 374.001 194.538 346.164 164.329 339.96C99.7098 326.69 128.352 272.093 157.406 276.495C176.446 279.38 192.024 303.612 192.024 303.612L198.947 293.227Z" fill="#A5D5C9"/>
<path d="M271.451 293.227C271.451 293.227 315.877 224.569 356.264 286.88C396.651 349.192 303.761 342.268 284.144 376.885L274.336 374.001C274.336 374.001 275.86 346.164 306.069 339.96C370.688 326.69 342.046 272.093 312.992 276.495C293.952 279.38 278.374 303.612 278.374 303.612L271.451 293.227Z" fill="#A5D5C9"/>
<path d="M304.127 337.698C304.066 337.698 304.004 337.691 303.942 337.676C303.508 337.574 303.24 337.139 303.341 336.706C304.077 333.586 302.261 330.855 302.242 330.827C301.993 330.458 302.089 329.956 302.458 329.707C302.828 329.457 303.33 329.554 303.579 329.922C303.67 330.058 305.808 333.274 304.912 337.075C304.824 337.447 304.493 337.698 304.127 337.698Z" fill="#241726"/>
<path d="M299.589 345.331C299.527 345.331 299.466 345.324 299.403 345.309C298.969 345.207 298.701 344.772 298.803 344.339C299.539 341.219 297.722 338.487 297.704 338.459C297.454 338.09 297.551 337.589 297.92 337.339C298.29 337.089 298.791 337.186 299.04 337.554C299.132 337.69 301.27 340.908 300.374 344.708C300.285 345.08 299.954 345.331 299.589 345.331Z" fill="#241726"/>
<path d="M309.518 348.039C309.457 348.039 309.395 348.032 309.333 348.018C308.899 347.916 308.631 347.481 308.732 347.047C309.468 343.928 307.652 341.195 307.633 341.169C307.384 340.799 307.481 340.298 307.849 340.049C308.22 339.798 308.721 339.896 308.97 340.264C309.061 340.4 311.199 343.618 310.303 347.417C310.215 347.789 309.884 348.039 309.518 348.039Z" fill="#241726"/>
<path d="M294.414 332.849C294.352 332.849 294.291 332.842 294.228 332.828C293.795 332.725 293.526 332.291 293.628 331.857C294.358 328.76 292.547 326.004 292.528 325.977C292.28 325.607 292.379 325.106 292.747 324.858C293.117 324.608 293.617 324.706 293.865 325.074C293.956 325.21 296.094 328.426 295.198 332.227C295.112 332.598 294.78 332.849 294.414 332.849Z" fill="#241726"/>
<path d="M304.35 357.364C304.288 357.364 304.227 357.357 304.164 357.343C303.731 357.241 303.462 356.806 303.564 356.372C304.295 353.276 302.482 350.52 302.464 350.492C302.217 350.123 302.315 349.621 302.684 349.373C303.053 349.124 303.552 349.222 303.802 349.589C303.893 349.724 306.031 352.941 305.136 356.742C305.047 357.113 304.715 357.364 304.35 357.364Z" fill="#241726"/>
<path d="M303.031 370.229C302.885 370.229 302.738 370.19 302.606 370.107C302.228 369.873 302.112 369.375 302.346 368.997C304.027 366.295 303.19 363.105 303.182 363.073C303.066 362.644 303.318 362.2 303.747 362.082C304.171 361.964 304.618 362.216 304.737 362.644C304.78 362.801 305.779 366.533 303.717 369.848C303.564 370.095 303.301 370.229 303.031 370.229Z" fill="#241726"/>
<path d="M296.821 360.908C296.686 360.908 296.549 360.874 296.423 360.803C296.036 360.583 295.9 360.091 296.12 359.703C297.703 356.917 296.728 353.784 296.718 353.752C296.582 353.328 296.816 352.874 297.24 352.738C297.667 352.603 298.119 352.836 298.254 353.261C298.304 353.416 299.451 357.106 297.522 360.5C297.375 360.762 297.101 360.908 296.821 360.908Z" fill="#241726"/>
<path d="M189.453 284.579C189.333 284.579 189.211 284.552 189.096 284.495C188.697 284.297 188.533 283.813 188.732 283.414C190.157 280.543 189.01 277.469 188.999 277.439C188.838 277.023 189.047 276.557 189.463 276.397C189.878 276.238 190.345 276.446 190.504 276.863C190.563 277.014 191.913 280.634 190.177 284.131C190.035 284.415 189.75 284.579 189.453 284.579Z" fill="#241726"/>
<path d="M183.299 290.98C183.178 290.98 183.057 290.953 182.942 290.895C182.543 290.698 182.379 290.213 182.578 289.815C184.003 286.944 182.855 283.87 182.843 283.84C182.683 283.424 182.892 282.958 183.308 282.798C183.722 282.64 184.189 282.847 184.35 283.263C184.408 283.414 185.76 287.035 184.023 290.532C183.881 290.816 183.595 290.98 183.299 290.98Z" fill="#241726"/>
<path d="M192.352 295.875C192.232 295.875 192.11 295.848 191.995 295.79C191.596 295.593 191.433 295.108 191.631 294.71C193.056 291.839 191.908 288.766 191.896 288.735C191.737 288.319 191.945 287.853 192.361 287.694C192.777 287.536 193.243 287.742 193.403 288.159C193.461 288.311 194.813 291.93 193.076 295.427C192.935 295.711 192.649 295.875 192.352 295.875Z" fill="#241726"/>
<path d="M181.096 277.649C180.975 277.649 180.853 277.622 180.738 277.564C180.339 277.367 180.176 276.882 180.375 276.484C181.8 273.613 180.653 270.54 180.641 270.509C180.481 270.093 180.69 269.627 181.106 269.468C181.52 269.311 181.988 269.517 182.147 269.933C182.205 270.085 183.557 273.705 181.819 277.201C181.678 277.485 181.393 277.649 181.096 277.649Z" fill="#241726"/>
<path d="M185.2 303.781C185.079 303.781 184.957 303.754 184.843 303.696C184.443 303.498 184.28 303.014 184.479 302.616C185.904 299.746 184.756 296.672 184.744 296.641C184.584 296.225 184.793 295.759 185.209 295.6C185.622 295.442 186.091 295.648 186.251 296.065C186.309 296.216 187.661 299.837 185.924 303.333C185.783 303.617 185.497 303.781 185.2 303.781Z" fill="#241726"/>
<path d="M180.995 316.011C180.789 316.011 180.582 315.932 180.425 315.775C180.11 315.46 180.11 314.949 180.425 314.634C182.691 312.369 182.587 309.088 182.584 309.056C182.566 308.611 182.912 308.235 183.357 308.217C183.812 308.184 184.178 308.544 184.196 308.99C184.203 309.153 184.326 313.015 181.565 315.775C181.407 315.931 181.201 316.011 180.995 316.011Z" fill="#241726"/>
<path d="M177.066 305.522C176.869 305.522 176.674 305.451 176.518 305.308C176.191 305.006 176.171 304.496 176.474 304.168C178.647 301.814 178.411 298.541 178.408 298.509C178.372 298.064 178.703 297.676 179.147 297.639C179.591 297.605 179.98 297.934 180.016 298.377C180.029 298.54 180.308 302.394 177.659 305.262C177.499 305.435 177.283 305.522 177.066 305.522Z" fill="#241726"/>
<path d="M84.431 414.878C83.8304 414.878 83.2625 414.878 81.6758 408.553C76.3117 407.521 75.8437 406.893 75.6863 406.681C75.5367 406.481 75.4722 406.111 75.5396 405.868C75.6367 405.526 75.86 404.732 81.9871 402.264C84.1856 396.53 84.9272 396.53 85.4221 396.53C85.6766 396.53 86.0283 396.714 86.1807 396.918C86.5735 397.445 86.9294 398.817 87.4704 401.014C87.6405 401.704 87.8454 402.539 87.9631 402.903C88.2836 403.046 88.9947 403.301 89.5853 403.513C92.7332 404.641 93.5442 405.025 93.691 405.773C93.7456 406.052 93.6031 406.461 93.3911 406.651C92.753 407.224 89.7058 408.354 88.1106 408.922C85.5171 414.823 84.9662 414.852 84.4777 414.877C84.4621 414.878 84.4451 414.878 84.431 414.878ZM77.7318 405.986C78.8009 406.297 80.7669 406.744 82.4812 407.063C82.7925 407.122 83.0406 407.356 83.1165 407.663C83.5546 409.439 84.1282 411.462 84.5387 412.607C85.1328 411.541 86.0375 409.638 86.7713 407.957C86.8614 407.751 87.0322 407.592 87.2435 407.518C88.709 407.002 90.3644 406.369 91.3875 405.92C90.6679 405.615 89.6796 405.261 89.0408 405.032C87.2449 404.388 86.9067 404.249 86.677 403.94C86.4764 403.67 86.3509 403.218 85.9035 401.399C85.7341 400.709 85.4724 399.648 85.242 398.86C84.706 399.879 83.9545 401.623 83.3696 403.168C83.2895 403.379 83.1236 403.547 82.9144 403.63C81.0115 404.39 78.8527 405.358 77.7318 405.986Z" fill="#241726"/>
<path d="M363.7 400.34C363.1 400.34 362.532 400.34 360.944 394.015C355.581 392.983 355.113 392.355 354.956 392.144C354.806 391.943 354.742 391.572 354.809 391.33C354.906 390.989 355.131 390.195 361.256 387.726C363.454 381.992 364.196 381.992 364.691 381.992C364.945 381.992 365.297 382.176 365.449 382.38C365.842 382.908 366.199 384.28 366.74 386.477C366.91 387.167 367.115 388.001 367.233 388.365C367.554 388.509 368.265 388.764 368.855 388.975C372.003 390.104 372.814 390.487 372.961 391.235C373.016 391.514 372.873 391.923 372.662 392.112C372.023 392.686 368.976 393.817 367.38 394.385C364.786 400.285 364.236 400.314 363.747 400.339C363.731 400.34 363.714 400.34 363.7 400.34ZM357.001 391.449C358.07 391.759 360.036 392.206 361.75 392.526C362.061 392.584 362.309 392.819 362.385 393.126C362.823 394.902 363.396 396.924 363.808 398.07C364.402 397.004 365.307 395.1 366.041 393.42C366.131 393.214 366.302 393.055 366.512 392.981C367.977 392.465 369.634 391.832 370.656 391.383C369.937 391.078 368.949 390.724 368.31 390.495C366.514 389.851 366.176 389.712 365.946 389.403C365.746 389.133 365.62 388.681 365.174 386.864C365.003 386.174 364.742 385.112 364.511 384.323C363.976 385.341 363.224 387.086 362.639 388.631C362.559 388.842 362.393 389.01 362.184 389.093C360.281 389.852 358.122 390.82 357.001 391.449Z" fill="#241726"/>
<path d="M72.7136 242.527C72.7136 242.527 71.0412 230.72 82.4572 234.434C93.874 238.149 90.2716 249.009 85.8972 245.347C81.5228 241.685 89.54 229.044 98.3023 234.553C107.065 240.061 105.223 250.934 99.0538 251.796C92.885 252.657 102.67 239.121 110.531 247.345C118.393 255.569 101.552 270.866 94.5504 265.371C87.5484 259.875 92.8977 250.842 94.6177 256.299C96.3377 261.755 91.8959 267.165 79.5716 267.074C67.2481 266.982 72.6718 247.97 77.0321 253.446C81.393 258.923 74.3032 265.22 65.5479 258.804C56.7941 252.388 66.5788 238.852 72.7136 242.527Z" fill="white"/>
<path d="M79.8794 267.881L79.5667 267.88C75.522 267.85 72.6548 265.807 71.614 262.251C69.4857 261.999 67.2375 261.04 65.0722 259.454C61.6166 256.922 60.4298 253.039 61.8159 248.802C63.2289 244.483 67.0255 241.098 70.4591 241.098C70.9277 241.098 71.3822 241.157 71.8211 241.277C71.7927 239.619 72.0267 236.814 73.6892 234.899C75.5411 232.769 78.6018 232.332 82.7061 233.666C84.2864 234.181 85.6732 234.854 86.8416 235.673C90.0973 232.18 94.7659 231.376 98.7313 233.869C102.518 236.25 104.841 239.943 105.072 243.878C107.28 243.923 109.313 244.902 111.115 246.787C113.583 249.369 114.055 252.866 112.444 256.632C110.006 262.338 103.328 267.342 98.1542 267.342C96.5632 267.342 95.1828 266.891 94.0534 266.005C93.5089 265.579 93.0169 265.117 92.5801 264.625C89.808 266.757 85.4428 267.881 79.8794 267.881ZM73.3262 262.296C74.0508 264.268 75.7375 266.238 79.5795 266.267L79.8794 266.268C86.2921 266.268 89.7619 264.764 91.6102 263.335C89.8441 260.53 89.9569 257.453 90.9168 255.539C91.4706 254.435 92.2816 253.802 93.1431 253.802C93.7159 253.802 94.7695 254.095 95.3877 256.055C96.2491 258.789 95.6592 261.476 93.7719 263.537C94.147 263.963 94.5745 264.363 95.0481 264.735C95.8868 265.394 96.9312 265.728 98.1534 265.728C102.68 265.728 108.783 261.09 110.961 255.998C111.909 253.78 112.503 250.575 109.948 247.902C108.457 246.342 106.809 245.531 105.048 245.491C104.707 249.274 102.366 252.147 99.1652 252.594C98.9326 252.627 98.7185 252.642 98.5235 252.642H98.5228C96.9496 252.642 96.3448 251.672 96.3037 250.765C96.203 248.539 99.3772 244.769 103.463 244.011C103.274 240.584 101.224 237.342 97.872 235.235C94.578 233.165 90.8332 233.819 88.0986 236.692C90.8183 239.237 91.3401 242.389 90.5971 244.503C90.0781 245.979 88.953 246.896 87.6598 246.897C86.8856 246.897 86.1184 246.583 85.3804 245.965C82.962 243.941 83.6909 239.941 85.8207 236.928C84.804 236.231 83.5923 235.651 82.2077 235.201C78.7741 234.083 76.3245 234.328 74.908 235.958C72.9441 238.219 73.5056 242.373 73.512 242.414C73.5552 242.721 73.4184 243.028 73.1589 243.199C72.9001 243.371 72.5634 243.379 72.2989 243.219C71.7367 242.883 71.1185 242.712 70.4598 242.712C67.7281 242.712 64.5391 245.67 63.3494 249.305C62.8028 250.975 61.9704 255.181 66.0258 258.154C67.7848 259.443 69.58 260.267 71.278 260.572C70.9603 257.816 71.6537 254.708 73.0441 252.965C73.7304 252.105 74.5358 251.65 75.3738 251.65C75.9488 251.65 76.8123 251.875 77.6645 252.944C79.2257 254.905 79.5915 257.127 78.6691 259.041C77.768 260.908 75.7531 262.123 73.3262 262.296ZM93.1438 255.416C93.0048 255.416 92.6687 255.646 92.3589 256.262C91.662 257.653 91.562 260.001 92.807 262.192C94.1328 260.594 94.5043 258.62 93.8492 256.542C93.5599 255.623 93.2352 255.416 93.1438 255.416ZM75.3738 253.262C75.0484 253.262 74.669 253.514 74.3046 253.97C73.2617 255.277 72.5144 258.066 72.92 260.701C74.9002 260.645 76.5344 259.751 77.215 258.34C77.8581 257.005 77.5617 255.405 76.4018 253.948C76.1529 253.635 75.7729 253.262 75.3738 253.262ZM103.406 245.669C100.136 246.444 97.8606 249.479 97.9159 250.691C97.9223 250.841 97.9308 251.028 98.5235 251.028C98.6242 251.084 98.7915 251.019 98.9425 250.997C101.293 250.668 103.039 248.534 103.406 245.669ZM87.0763 237.943C85.2513 240.549 84.9259 243.481 86.4155 244.728C86.8494 245.091 87.2798 245.283 87.6598 245.283C88.2574 245.282 88.7863 244.791 89.0763 243.968C89.6343 242.38 89.1983 239.976 87.0763 237.943Z" fill="#241726"/>
<path d="M308.517 177.593C308.517 177.593 306.845 165.786 318.261 169.5C329.678 173.215 326.075 184.075 321.701 180.413C317.327 176.752 325.344 164.11 334.106 169.619C342.868 175.128 341.027 186.001 334.858 186.862C328.689 187.723 338.473 174.188 346.335 182.411C354.197 190.635 337.357 205.932 330.355 200.437C323.354 194.942 328.702 185.908 330.422 191.365C332.142 196.821 327.7 202.231 315.376 202.14C303.053 202.048 308.476 183.036 312.837 188.513C317.198 193.989 310.108 200.287 301.352 193.87C292.598 187.454 302.382 173.918 308.517 177.593Z" fill="white"/>
<path d="M315.686 202.947L315.371 202.946C311.327 202.916 308.459 200.874 307.418 197.317C305.29 197.066 303.042 196.107 300.877 194.521C297.421 191.988 296.234 188.106 297.62 183.869C299.033 179.549 302.829 176.164 306.263 176.164C306.732 176.164 307.187 176.224 307.626 176.343C307.597 174.686 307.831 171.881 309.493 169.966C311.345 167.833 314.408 167.398 318.511 168.733C320.091 169.247 321.478 169.92 322.646 170.74C325.901 167.247 330.571 166.442 334.536 168.935C338.323 171.315 340.645 175.01 340.876 178.944C343.085 178.99 345.117 179.969 346.919 181.854C349.387 184.435 349.86 187.931 348.249 191.698C345.81 197.403 339.133 202.407 333.959 202.407C332.367 202.407 330.987 201.958 329.858 201.071C329.314 200.645 328.822 200.182 328.385 199.69C325.613 201.824 321.249 202.947 315.686 202.947ZM309.129 197.362C309.854 199.335 311.541 201.305 315.383 201.333L315.686 201.334C322.098 201.334 325.567 199.83 327.415 198.401C325.649 195.597 325.762 192.519 326.721 190.605C327.275 189.502 328.086 188.868 328.947 188.868C329.521 188.868 330.573 189.161 331.192 191.122C332.054 193.856 331.463 196.543 329.577 198.603C329.952 199.028 330.379 199.43 330.853 199.802C331.691 200.46 332.736 200.794 333.958 200.794C338.484 200.794 344.588 196.156 346.764 191.064C347.713 188.846 348.307 185.641 345.752 182.969C344.261 181.409 342.613 180.598 340.852 180.557C340.511 184.34 338.169 187.213 334.969 187.66C334.737 187.693 334.522 187.708 334.327 187.708C332.753 187.708 332.148 186.738 332.107 185.83C332.006 183.604 335.181 179.834 339.267 179.077C339.078 175.649 337.027 172.408 333.676 170.301C330.381 168.23 326.638 168.884 323.903 171.757C326.622 174.302 327.144 177.455 326.4 179.569C325.882 181.045 324.756 181.962 323.463 181.962C322.689 181.962 321.921 181.649 321.183 181.031C318.765 179.007 319.493 175.006 321.624 171.995C320.607 171.297 319.396 170.717 318.011 170.267C314.579 169.149 312.128 169.391 310.711 171.023C308.747 173.285 309.309 177.438 309.315 177.479C309.358 177.787 309.222 178.093 308.962 178.265C308.704 178.437 308.367 178.446 308.102 178.285C307.54 177.949 306.92 177.778 306.262 177.778C303.531 177.778 300.341 180.736 299.152 184.371C298.606 186.04 297.773 190.247 301.829 193.22C303.588 194.508 305.383 195.332 307.08 195.638C306.764 192.882 307.456 189.773 308.847 188.03C309.533 187.17 310.338 186.716 311.176 186.716C311.751 186.716 312.615 186.941 313.467 188.01C315.028 189.97 315.395 192.191 314.472 194.106C313.572 195.974 311.557 197.189 309.129 197.362ZM328.947 190.481C328.809 190.481 328.473 190.711 328.164 191.328C327.467 192.718 327.367 195.066 328.612 197.257C329.937 195.66 330.308 193.685 329.653 191.607C329.364 190.689 329.038 190.481 328.947 190.481ZM311.178 188.328C310.852 188.328 310.473 188.579 310.109 189.036C309.066 190.343 308.318 193.132 308.725 195.768C310.704 195.712 312.34 194.818 313.02 193.405C313.663 192.072 313.366 190.471 312.206 189.015C311.957 188.7 311.576 188.328 311.178 188.328ZM339.21 180.736C335.94 181.509 333.665 184.544 333.72 185.757C333.727 185.908 333.735 186.095 334.327 186.095H334.328C334.456 186.095 334.595 186.085 334.746 186.064C337.097 185.734 338.843 183.601 339.21 180.736ZM322.879 173.009C321.055 175.615 320.73 178.548 322.219 179.794C322.653 180.157 323.083 180.349 323.463 180.349C323.463 180.349 323.463 180.349 323.464 180.349C324.061 180.349 324.59 179.857 324.879 179.033C325.438 177.445 325.002 175.043 322.879 173.009Z" fill="#241726"/>
<path d="M303.399 439.336C303.399 439.336 301.727 427.529 313.143 431.243C324.56 434.958 320.957 445.817 316.583 442.156C312.209 438.494 320.226 425.853 328.988 431.362C337.75 436.871 335.908 447.743 329.74 448.605C323.571 449.466 333.356 435.93 341.218 444.155C349.08 452.378 332.239 467.676 325.238 462.181C318.236 456.685 323.585 447.652 325.305 453.108C327.025 458.565 322.583 463.975 310.259 463.884C297.935 463.791 303.358 444.78 307.719 450.256C312.08 455.732 304.99 462.03 296.235 455.614C287.48 449.198 297.265 435.661 303.399 439.336Z" fill="white"/>
<path d="M310.566 464.69L310.253 464.689C306.208 464.659 303.341 462.617 302.3 459.06C300.172 458.809 297.924 457.849 295.759 456.263C292.303 453.731 291.116 449.848 292.502 445.612C293.915 441.292 297.712 437.907 301.145 437.907C301.614 437.907 302.068 437.967 302.507 438.086C302.479 436.429 302.713 433.623 304.375 431.708C306.227 429.579 309.289 429.142 313.392 430.475C314.973 430.989 316.359 431.664 317.528 432.483C320.783 428.989 325.451 428.186 329.418 430.678C333.204 433.058 335.527 436.752 335.759 440.687C337.966 440.732 339.998 441.711 341.801 443.596C344.269 446.178 344.741 449.675 343.131 453.442C340.692 459.147 334.015 464.151 328.84 464.151C327.249 464.151 325.869 463.701 324.74 462.814C324.195 462.388 323.703 461.926 323.266 461.435C320.494 463.567 316.129 464.69 310.566 464.69ZM304.012 459.105C304.736 461.077 306.423 463.048 310.265 463.076L310.565 463.077C316.978 463.077 320.447 461.573 322.296 460.144C320.53 457.339 320.642 454.262 321.602 452.348C322.156 451.245 322.967 450.611 323.829 450.611C324.401 450.611 325.455 450.904 326.073 452.865C326.935 455.599 326.345 458.286 324.457 460.346C324.833 460.772 325.26 461.172 325.734 461.545C326.572 462.203 327.617 462.537 328.839 462.537C333.365 462.537 339.469 457.899 341.646 452.807C342.595 450.589 343.188 447.384 340.634 444.711C339.143 443.151 337.495 442.34 335.734 442.3C335.393 446.083 333.052 448.956 329.851 449.403C329.619 449.436 329.405 449.451 329.21 449.451H329.209C327.636 449.451 327.031 448.481 326.99 447.574C326.889 445.349 330.063 441.578 334.149 440.82C333.961 437.393 331.911 434.152 328.558 432.044C325.264 429.973 321.519 430.627 318.785 433.501C321.505 436.046 322.026 439.198 321.283 441.312C320.764 442.788 319.639 443.705 318.346 443.706H318.345C317.571 443.706 316.804 443.392 316.066 442.774C313.648 440.75 314.376 436.75 316.506 433.738C315.49 433.041 314.278 432.461 312.893 432.011C309.459 430.892 307.009 431.137 305.594 432.767C303.63 435.029 304.191 439.182 304.198 439.223C304.241 439.531 304.104 439.837 303.844 440.008C303.586 440.18 303.25 440.188 302.984 440.028C302.422 439.692 301.804 439.521 301.145 439.521C298.414 439.521 295.225 442.479 294.035 446.114C293.488 447.784 292.656 451.99 296.711 454.963C298.47 456.252 300.266 457.076 301.964 457.381C301.646 454.626 302.339 451.517 303.73 449.774C304.416 448.914 305.221 448.46 306.059 448.46C306.634 448.46 307.498 448.684 308.35 449.753C309.911 451.714 310.276 453.936 309.355 455.85C308.454 457.717 306.439 458.932 304.012 459.105ZM323.829 452.225C323.69 452.225 323.354 452.455 323.044 453.071C322.348 454.462 322.248 456.81 323.493 459.001C324.818 457.403 325.19 455.43 324.535 453.351C324.246 452.432 323.921 452.225 323.829 452.225ZM306.06 450.071C305.735 450.071 305.355 450.322 304.991 450.779C303.948 452.086 303.201 454.875 303.606 457.51C305.586 457.454 307.221 456.56 307.901 455.149C308.544 453.814 308.248 452.214 307.088 450.757C306.839 450.444 306.458 450.071 306.06 450.071ZM334.092 442.479C330.821 443.253 328.546 446.288 328.602 447.5C328.608 447.651 328.616 447.837 329.209 447.837H329.21C329.337 447.837 329.477 447.827 329.628 447.806C331.979 447.478 333.725 445.344 334.092 442.479ZM317.762 434.752C315.937 437.358 315.611 440.29 317.101 441.537C317.535 441.9 317.965 442.092 318.345 442.092C318.943 442.091 319.472 441.6 319.762 440.777C320.32 439.188 319.884 436.785 317.762 434.752Z" fill="#241726"/>
<path d="M140.768 472C140.767 472 140.744 472 140.744 472C137.591 471.987 135.038 469.411 135.052 466.259C135.065 463.121 137.628 460.568 140.766 460.568C143.944 460.581 146.497 463.157 146.483 466.308C146.47 469.447 143.906 472 140.768 472ZM140.785 462.181C138.514 462.181 136.674 464.013 136.664 466.266C136.654 468.529 138.487 470.376 140.749 470.387L140.768 471.194V470.387C143.02 470.387 144.861 468.555 144.87 466.302C144.88 464.039 143.047 462.19 140.785 462.181Z" fill="#241726"/>
<path d="M360.161 431.67C360.16 431.67 360.137 431.67 360.137 431.67C356.984 431.657 354.431 429.081 354.445 425.93C354.458 422.791 357.021 420.238 360.159 420.238C363.337 420.251 365.89 422.827 365.877 425.978C365.864 429.117 363.3 431.67 360.161 431.67ZM360.178 421.851C357.908 421.851 356.068 423.683 356.058 425.936C356.048 428.199 357.881 430.047 360.143 430.057L360.162 430.864V430.057C362.414 430.057 364.254 428.225 364.264 425.972C364.274 423.709 362.441 421.861 360.178 421.851Z" fill="#241726"/>
<mask id="mask0_563_2517" style="mask-type:alpha" maskUnits="userSpaceOnUse" x="75" y="283" width="99" height="99">
<path d="M124.513 381.849C151.575 381.849 173.513 359.911 173.513 332.849C173.513 305.787 151.575 283.849 124.513 283.849C97.451 283.849 75.5129 305.787 75.5129 332.849C75.5129 359.911 97.451 381.849 124.513 381.849Z" fill="#C4C4C4"/>
</mask>
<g mask="url(#mask0_563_2517)">
<path d="M142.165 377.946C167.088 367.76 179.035 339.3 168.849 314.378C158.662 289.457 130.201 277.51 105.278 287.696C80.3552 297.882 68.4084 326.342 78.5947 351.264C88.7809 376.185 117.242 388.132 142.165 377.946Z" fill="#FF8174"/>
</g>
<mask id="mask1_563_2517" style="mask-type:alpha" maskUnits="userSpaceOnUse" x="326" y="195" width="99" height="99">
<path d="M375.25 293.31C402.312 293.31 424.25 271.372 424.25 244.31C424.25 217.248 402.312 195.31 375.25 195.31C348.188 195.31 326.25 217.248 326.25 244.31C326.25 271.372 348.188 293.31 375.25 293.31Z" fill="#C4C4C4"/>
</mask>
<g mask="url(#mask1_563_2517)">
<path d="M392.902 289.407C417.825 279.222 429.772 250.762 419.586 225.839C409.399 200.918 380.938 188.971 356.015 199.158C331.092 209.343 319.145 237.803 329.332 262.725C339.518 287.647 367.979 299.593 392.902 289.407Z" fill="#79BBE0"/>
</g>
<path d="M123.036 363.749C140.101 363.749 153.935 349.915 153.935 332.85C153.935 315.784 140.101 301.95 123.036 301.95C105.97 301.95 92.136 315.784 92.136 332.85C92.136 349.915 105.97 363.749 123.036 363.749Z" fill="#A5D5C9"/>
<path d="M123.036 364.555C122.59 364.555 122.229 364.195 122.229 363.749V301.949C122.229 301.503 122.59 301.142 123.036 301.142C123.482 301.142 123.842 301.503 123.842 301.949V363.749C123.842 364.195 123.482 364.555 123.036 364.555Z" fill="#241726"/>
<path d="M136.084 360.4C135.956 360.4 135.826 360.37 135.705 360.306C135.312 360.096 135.163 359.607 135.373 359.214C149.635 332.461 132.352 304.263 132.175 303.98C131.939 303.603 132.053 303.106 132.431 302.869C132.809 302.632 133.305 302.748 133.543 303.124C133.724 303.414 151.503 332.384 136.797 359.973C136.651 360.245 136.372 360.4 136.084 360.4Z" fill="#241726"/>
<path d="M116.96 363.957C116.718 363.957 116.478 363.849 116.32 363.642C94.3635 335.039 116.019 302.432 116.241 302.106C116.492 301.737 116.994 301.642 117.361 301.892C117.73 302.141 117.826 302.643 117.575 303.012C117.361 303.329 96.36 334.991 117.599 362.659C117.871 363.013 117.804 363.519 117.451 363.79C117.304 363.903 117.131 363.957 116.96 363.957Z" fill="#241726"/>
<path d="M153.935 333.656H92.1359C91.69 333.656 91.3291 333.295 91.3291 332.849C91.3291 332.403 91.69 332.042 92.1359 332.042H153.935C154.381 332.042 154.741 332.403 154.741 332.849C154.742 333.295 154.381 333.656 153.935 333.656Z" fill="#241726"/>
<path d="M124.449 322.23C109.264 322.23 97.398 316.122 97.2207 316.028C96.8266 315.821 96.6755 315.334 96.8826 314.94C97.0896 314.544 97.5788 314.394 97.9723 314.601C98.2318 314.737 124.192 328.075 148.079 314.613C148.468 314.392 148.96 314.53 149.178 314.919C149.397 315.307 149.259 315.799 148.872 316.018C140.604 320.676 132.103 322.23 124.449 322.23Z" fill="#241726"/>
<path d="M98.4153 352.328C98.0793 352.328 97.7645 352.116 97.6511 351.78C97.5085 351.358 97.7347 350.9 98.1566 350.758C99.6497 350.252 134.89 338.511 148.977 349.757C149.325 350.035 149.382 350.543 149.104 350.891C148.827 351.239 148.319 351.297 147.971 351.018C134.574 340.323 99.0314 352.167 98.6727 352.286C98.5883 352.316 98.5018 352.328 98.4153 352.328Z" fill="#241726"/>
<path d="M349.623 242.901C349.623 242.901 364.671 233.871 367.982 229.056C371.293 224.24 366.779 211.298 369.788 211.9C372.798 212.501 382.128 215.21 379.72 226.347C379.72 226.347 392.06 225.444 393.264 227.55C394.468 229.657 401.39 248.318 400.789 252.531C400.187 256.745 378.517 256.444 374.604 260.056C370.691 263.667 365.273 267.279 363.166 266.677C361.06 266.076 349.623 242.901 349.623 242.901Z" fill="#F5D66E"/>
<path d="M356.556 236.581C356.556 236.581 371.906 260.96 372.207 263.067C372.508 265.174 361.673 274.203 359.566 271.495C357.459 268.786 345.119 244.708 345.119 242.902C345.12 241.095 355.654 234.774 356.556 236.581Z" fill="#FDFFFF"/>
<path fill-rule="evenodd" clip-rule="evenodd" d="M201.754 327.671C205.981 320.548 212.644 312.287 205.877 299.726C195.913 256.099 241.828 247.255 248.769 265.258C260.065 269.524 259.762 293.007 253.954 305.298C253.697 310.354 248.445 314.761 257.931 327.808L258.616 327.658V327.662C246.307 331.234 214.765 329.587 201.754 327.671Z" fill="#596366"/>
<path fill-rule="evenodd" clip-rule="evenodd" d="M213.814 305.073C217.277 312.358 218.559 315.201 222.856 318.474C222.175 331.03 215.442 331.026 207.932 334.93L255.739 335.99C247.694 331.396 240.151 332.028 239.424 318.474C243.725 315.201 245.004 312.358 248.466 305.073C249.317 305.518 250.202 306.117 250.891 305.343C251.58 304.566 254.859 294.492 254.27 293.132C253.68 291.772 253.103 292.637 252.223 293.253C252.273 292.962 251.53 296.895 251.542 296.296C251.625 291.544 248.221 287.349 247.154 274.763C237.282 293.053 208.845 285.532 210.057 293.253C204.519 289.369 211.249 305.185 211.39 305.343C212.079 306.117 212.968 305.518 213.814 305.073Z" fill="#FED298"/>
<path fill-rule="evenodd" clip-rule="evenodd" d="M222.856 318.474C222.669 321.925 222.026 324.428 221.034 326.323L231.807 332.768L241.508 326.964C240.371 324.964 239.628 322.278 239.424 318.474C237.129 320.182 235.422 322.012 231.877 322.02C228.166 322.029 226.198 320.245 222.856 318.474Z" fill="#F0BA7D"/>
<path fill-rule="evenodd" clip-rule="evenodd" d="M220.565 327.13C219.344 329.047 217.713 330.278 215.824 331.288L215.828 331.292L231.69 361.407L246.415 331.267C244.307 330.132 242.526 328.727 241.284 326.386L241.28 326.382L231.213 331.396L230.906 331.421L221.976 326.631L220.565 327.13Z" fill="#ECF0F1"/>
<path fill-rule="evenodd" clip-rule="evenodd" d="M228.668 331.517L229.606 334.319L227.518 366.263L231.117 369.598L234.721 366.263L232.633 334.319L233.571 331.517L231.117 331.396L228.668 331.517Z" fill="#FF7069"/>
<path fill-rule="evenodd" clip-rule="evenodd" d="M215.824 331.288C210.551 334.111 200.895 330.702 194.88 340.431C194.311 341.346 193.921 361.236 193.082 374.129C192.962 376.017 193.555 377.684 194.846 379.061C196.133 380.441 197.757 381.144 199.646 381.144H231.244H262.842C264.711 381.144 266.321 380.453 267.608 379.098C268.895 377.743 269.505 376.1 269.41 374.229C268.766 361.349 268.642 341.35 268.077 340.431C262.045 330.673 251.696 334.107 246.415 331.267L231.694 361.407L215.828 331.292L215.824 331.288Z" fill="#6B7F9E"/>
<path fill-rule="evenodd" clip-rule="evenodd" d="M221.698 323.563L219.307 328.556L226.418 340.522L231.068 331.396L221.698 323.563ZM240.583 323.563L243.015 328.44L235.867 340.522L231.213 331.396L240.583 323.563Z" fill="white"/>
<path fill-rule="evenodd" clip-rule="evenodd" d="M217.036 330.581L231.254 358.322L245.261 330.594C245.967 331.043 246.718 331.442 247.503 331.816L231.254 363.619L214.852 331.778C215.62 331.413 216.347 331.022 217.036 330.581Z" fill="#8597B1"/>
<path d="M89.1238 428.712L136.444 394.297L161.179 422.26L186.991 402.901L211.726 433.014L267.65 360.958L292.385 400.751L359.064 338.373L340.781 325.468L391.328 311.487V363.109L373.045 346.978L293.461 435.165L267.65 394.297L211.726 465.278L185.915 425.486L160.104 457.749L137.519 416.882L108.482 458.825L89.1238 428.712Z" fill="#EA7E94"/>
<path d="M454.053 71.1568C454.053 69.3449 452.584 67.8761 450.773 67.8761H447.411L449.775 59.7708H454.632C456.444 59.7708 457.913 58.302 457.913 56.4901C457.913 54.6782 456.444 53.2094 454.632 53.2094H451.689L453.132 48.2612C453.745 46.1616 452.17 44.062 449.983 44.062C448.525 44.062 447.242 45.0243 446.834 46.424L444.854 53.2094H437.794L439.238 48.2612C439.85 46.1616 438.275 44.062 436.088 44.062C434.63 44.062 433.347 45.0243 432.939 46.424L430.96 53.2094H425.685C423.873 53.2094 422.404 54.6782 422.404 56.4901C422.404 58.302 423.873 59.7708 425.685 59.7708H429.046L426.682 67.8761H421.825C420.013 67.8761 418.544 69.3449 418.544 71.1568C418.544 72.9687 420.013 74.4375 421.825 74.4375H424.768L423.325 79.3857C422.713 81.4853 424.287 83.5849 426.474 83.5849C427.932 83.5849 429.216 82.6226 429.624 81.2229L431.603 74.4375H438.663L437.22 79.3857C436.607 81.4853 438.182 83.5849 440.369 83.5849C441.827 83.5849 443.11 82.6226 443.518 81.2229L445.498 74.4375H450.773C452.584 74.4375 454.053 72.9687 454.053 71.1568ZM440.577 67.8761H433.517L435.881 59.7708H442.941L440.577 67.8761Z" fill="#EE8768"/>
<path d="M375.297 118.828C375.297 114.085 371.452 110.239 366.708 110.239H357.908L364.097 89.019H376.813C381.556 89.019 385.402 85.1735 385.402 80.4299C385.402 75.6863 381.556 71.8408 376.813 71.8408H369.108L372.886 58.8861C374.489 53.3893 370.367 47.8925 364.641 47.8925C360.824 47.8925 357.464 50.4118 356.396 54.0764L351.214 71.8408H332.73L336.509 58.8861C338.112 53.3893 333.99 47.8925 328.264 47.8925C324.446 47.8925 321.087 50.4118 320.018 54.0764L314.837 71.8408H301.027C296.283 71.8408 292.438 75.6863 292.438 80.4299C292.438 85.1735 296.283 89.019 301.027 89.019H309.827L303.638 110.239H290.922C286.178 110.239 282.333 114.085 282.333 118.828C282.333 123.572 286.178 127.417 290.922 127.417H298.627L294.849 140.372C293.246 145.869 297.368 151.366 303.094 151.366C306.911 151.366 310.271 148.846 311.339 145.182L316.521 127.417H335.005L331.226 140.372C329.623 145.869 333.745 151.366 339.471 151.366C343.288 151.366 346.648 148.846 347.716 145.182L352.898 127.417H366.708C371.452 127.417 375.297 123.572 375.297 118.828ZM340.015 110.239H321.531L327.72 89.019H346.204L340.015 110.239Z" fill="#9AEAC8"/>
<path d="M101.579 143.352C100.419 143.352 95.8317 144.306 95.2227 144.052C94.6045 143.794 94.1379 143.29 93.8749 142.596C92.2485 138.3 98.1799 125.442 105.505 110.331C108.118 104.94 110.817 99.3742 111.01 98.0059C108.009 95.4408 78.9756 70.1222 79.6477 65.287C79.72 64.763 80.0476 64.3554 80.5467 64.1682C82.3419 63.7144 122.591 53.688 134.447 53.688C136.206 53.688 138.044 53.861 138.347 55.1442C139.357 59.4251 125.935 88.4764 123.303 94.1121C132.834 100.784 160.561 120.82 157.162 125.734C153.898 130.451 113.292 141.594 101.579 143.352ZM81.2436 65.6514C81.5563 69.5508 109.551 94.9558 112.213 96.9148C113.254 97.6798 112.663 99.2636 106.957 111.034C101.746 121.784 93.8707 138.029 95.3843 142.025C95.524 142.394 95.7133 142.509 95.8438 142.563C96.121 142.679 103.422 141.36 104.57 141.207C113.826 139.981 153.134 128.721 155.836 124.815C157.579 122.295 139.538 107.401 121.822 95.0466C121.5 94.8218 121.387 94.3979 121.554 94.042C127.8 80.7343 137.445 58.5367 136.78 55.5278C136.771 55.5866 136.346 55.3009 134.447 55.3009C123.229 55.3009 84.5227 64.8382 81.2436 65.6514Z" fill="#241726"/>
<path d="M73.9411 61.1841C73.9411 61.1841 138.035 46.0005 139.552 48.0899C141.07 50.1793 142.484 56.2226 142.484 56.2226C142.484 56.2226 79.1841 69.9691 76.4205 68.6299C73.6568 67.2906 73.9411 61.1841 73.9411 61.1841Z" fill="#EA7E94"/>
<path d="M88.8384 139.046C88.8384 139.046 159.376 118.29 160.893 120.379C162.411 122.469 165.024 127.257 165.024 127.257C165.024 127.257 94.0813 147.832 91.3177 146.492C88.5541 145.152 88.8384 139.046 88.8384 139.046Z" fill="#EA7E94"/>
<path d="M100.25 76.54C100.25 76.54 126.865 68.7454 126.163 71.0092C125.46 73.273 116.704 96.573 116.704 96.573C116.704 96.573 96.5479 77.5971 100.25 76.54Z" fill="#F5D66E"/>
<path d="M102.523 132.3C102.523 132.3 148.327 121.811 146.767 119.602C145.208 117.392 125.07 109.777 123.01 110.659C120.95 111.54 102.425 129.551 102.523 132.3Z" fill="#F5D66E"/>
<path d="M115.539 87.9696C115.539 87.9696 126.995 120.25 124.91 120.723C122.826 121.195 122.826 121.195 122.826 121.195C122.826 121.195 111.568 88.8133 112.345 87.8207C113.121 86.8288 115.539 87.9696 115.539 87.9696Z" fill="#F5D66E"/>
<path d="M252.002 49.1441C252.002 47.8885 250.984 46.8706 249.728 46.8706H247.399L249.037 41.2536H252.403C253.659 41.2536 254.677 40.2357 254.677 38.98C254.677 37.7244 253.659 36.7065 252.403 36.7065H250.363L251.364 33.2773C251.788 31.8223 250.697 30.3673 249.181 30.3673C248.171 30.3673 247.281 31.0342 246.999 32.0042L245.627 36.7065H240.734L241.735 33.2773C242.159 31.8223 241.068 30.3673 239.552 30.3673C238.542 30.3673 237.652 31.0342 237.369 32.0042L235.998 36.7065H232.342C231.087 36.7065 230.069 37.7244 230.069 38.98C230.069 40.2357 231.087 41.2536 232.342 41.2536H234.672L233.033 46.8706H229.668C228.412 46.8706 227.394 47.8885 227.394 49.1441C227.394 50.3998 228.412 51.4177 229.668 51.4177H231.707L230.707 54.8468C230.283 56.3018 231.374 57.7569 232.89 57.7569C233.9 57.7569 234.789 57.09 235.072 56.12L236.444 51.4177H241.336L240.336 54.8468C239.912 56.3018 241.003 57.7569 242.519 57.7569C243.529 57.7569 244.418 57.09 244.701 56.12L246.073 51.4177H249.728C250.984 51.4177 252.002 50.3998 252.002 49.1441ZM242.663 46.8706H237.77L239.408 41.2536H244.301L242.663 46.8706Z" fill="#F8D372"/>
<path fill-rule="evenodd" clip-rule="evenodd" d="M276.123 329.804C287.967 329.804 297.565 339.421 297.565 351.283C297.565 363.145 287.967 372.758 276.123 372.758C264.279 372.758 254.677 363.145 254.677 351.283C254.677 339.421 264.279 329.804 276.123 329.804Z" fill="white"/>
<path fill-rule="evenodd" clip-rule="evenodd" d="M276.123 332.485C286.485 332.485 294.887 340.901 294.887 351.283C294.887 361.661 286.485 370.076 276.123 370.076C265.757 370.076 257.354 361.661 257.354 351.283C257.354 340.901 265.757 332.485 276.123 332.485Z" fill="#F5CE4F"/>
<path fill-rule="evenodd" clip-rule="evenodd" d="M276.198 337.778L279.432 347.819L289.972 347.799L281.433 353.985L284.708 364.018L276.198 357.798L267.683 364.018L270.959 353.985L262.423 347.799L272.96 347.819L276.198 337.778Z" fill="#FCD34E"/>
<path fill-rule="evenodd" clip-rule="evenodd" d="M276.123 337.545L279.357 347.586L289.897 347.566L281.358 353.752L284.633 363.785L276.123 357.565L267.608 363.785L270.884 353.752L262.349 347.566L272.885 347.586L276.123 337.545Z" fill="white"/>
</svg>
