<svg width="20" height="20" viewBox="0 0 20 20" fill="none" xmlns="http://www.w3.org/2000/svg">
<path d="M17.6857 8.52955L10.2411 3.07882C10.0976 2.97373 9.90253 2.97373 9.75904 3.07882L2.31444 8.52955C2.1326 8.66271 2.09309 8.91804 2.22625 9.09988C2.35941 9.28172 2.61477 9.32117 2.79658 9.18807L10 3.9138L17.2035 9.18804C17.2762 9.24126 17.3606 9.26687 17.4442 9.26687C17.5699 9.26687 17.6939 9.20905 17.7738 9.09985C17.907 8.91804 17.8675 8.66271 17.6857 8.52955Z" fill="black"/>
<path d="M15.7129 9.28052C15.4876 9.28052 15.3049 9.46321 15.3049 9.68858V16.1838H12.0405V12.6383C12.0405 11.5132 11.1251 10.5979 10 10.5979C8.87493 10.5979 7.95954 11.5132 7.95954 12.6383V16.1839H4.69509V9.68861C4.69509 9.46324 4.51236 9.28055 4.28703 9.28055C4.06169 9.28055 3.87897 9.46324 3.87897 9.68861V16.592C3.87897 16.8173 4.06169 17 4.28703 17H8.3676C8.5822 17 8.75781 16.8342 8.77407 16.6237C8.77505 16.6142 8.77566 16.6038 8.77566 16.592V12.6383C8.77566 11.9632 9.32489 11.414 10 11.414C10.6751 11.414 11.2243 11.9633 11.2243 12.6383V16.592C11.2243 16.6037 11.2249 16.614 11.2259 16.6234C11.242 16.834 11.4177 17 11.6324 17H15.713C15.9383 17 16.121 16.8173 16.121 16.592V9.68861C16.121 9.46321 15.9383 9.28052 15.7129 9.28052Z" fill="black"/>
</svg>
