<svg width="20" height="20" viewBox="0 0 20 20" fill="none" xmlns="http://www.w3.org/2000/svg">
<path d="M14.9498 5.05025C13.6276 3.72813 11.8697 3 10 3C8.13026 3 6.37236 3.72813 5.05025 5.05025C3.72813 6.37236 3 8.13026 3 10C3 11.8697 3.72813 13.6276 5.05025 14.9498C6.37236 16.2719 8.13026 17 10 17C11.8697 17 13.6276 16.2719 14.9498 14.9498C16.2719 13.6276 17 11.8697 17 10C17 8.13026 16.2719 6.37236 14.9498 5.05025ZM6.03804 14.7386C6.26918 12.7498 7.97913 11.2142 10 11.2142C11.0653 11.2142 12.0671 11.6293 12.8207 12.3828C13.4573 13.0195 13.8588 13.8508 13.9621 14.7385C12.8886 15.6375 11.5065 16.1797 10 16.1797C8.49353 16.1797 7.1115 15.6376 6.03804 14.7386ZM10 10.3694C8.82774 10.3694 7.87392 9.41553 7.87392 8.24327C7.87392 7.07091 8.82774 6.11719 10 6.11719C11.1723 6.11719 12.1261 7.07091 12.1261 8.24327C12.1261 9.41553 11.1723 10.3694 10 10.3694ZM14.6681 14.0451C14.4591 13.2023 14.0232 12.4253 13.4007 11.8028C12.8965 11.2986 12.3001 10.9204 11.6496 10.6834C12.4316 10.1531 12.9464 9.25713 12.9464 8.24327C12.9464 6.61867 11.6246 5.29688 10 5.29688C8.3754 5.29688 7.0536 6.61867 7.0536 8.24327C7.0536 9.25766 7.56886 10.1539 8.35147 10.6841C7.75301 10.9022 7.19919 11.2394 6.7227 11.6833C6.0327 12.3259 5.55354 13.1453 5.33138 14.0444C4.39047 12.9597 3.82031 11.5452 3.82031 10C3.82031 6.5925 6.5925 3.82031 10 3.82031C13.4075 3.82031 16.1797 6.5925 16.1797 10C16.1797 11.5456 15.6093 12.9604 14.6681 14.0451Z" fill="black"/>
</svg>
