<svg width="20" height="20" viewBox="0 0 20 20" fill="none" xmlns="http://www.w3.org/2000/svg">
<path d="M5.83335 16.6667H1.66669V10.4167C1.66669 10.3062 1.71059 10.2002 1.78873 10.1221C1.86687 10.0439 1.97285 10 2.08335 10H5.41669C5.52719 10 5.63317 10.0439 5.71131 10.1221C5.78946 10.2002 5.83335 10.3062 5.83335 10.4167V16.6667ZM12.0834 3.75004C12.0834 3.63953 12.0395 3.53355 11.9613 3.45541C11.8832 3.37727 11.7772 3.33337 11.6667 3.33337H8.33335C8.22285 3.33337 8.11687 3.37727 8.03873 3.45541C7.96059 3.53355 7.91669 3.63953 7.91669 3.75004V16.6667H12.0834V3.75004ZM17.9167 6.66671H14.5834C14.4728 6.66671 14.3669 6.71061 14.2887 6.78875C14.2106 6.86689 14.1667 6.97287 14.1667 7.08337V16.6667H18.3334V7.08337C18.3334 6.97287 18.2895 6.86689 18.2113 6.78875C18.1332 6.71061 18.0272 6.66671 17.9167 6.66671Z" fill="black"/>
</svg>
