<svg width="24" height="24" viewBox="0 0 24 24" fill="none" xmlns="http://www.w3.org/2000/svg">
<path d="M18.2388 16.4708C17.1378 16.4708 16.1459 16.9467 15.4575 17.7037L9.26519 13.865C9.43051 13.4414 9.5222 12.9813 9.5222 12.5C9.5222 12.0185 9.43051 11.5584 9.26519 11.135L15.4575 7.29608C16.1459 8.05309 17.1378 8.52915 18.2388 8.52915C20.3128 8.52915 22 6.84037 22 4.76449C22 2.68861 20.3128 1 18.2388 1C16.1648 1 14.4776 2.68878 14.4776 4.76466C14.4776 5.24599 14.5695 5.70609 14.7346 6.12969L8.54254 9.96841C7.85409 9.2114 6.86216 8.73534 5.76119 8.73534C3.68722 8.73534 2 10.4243 2 12.5C2 14.5759 3.68722 16.2647 5.76119 16.2647C6.86216 16.2647 7.85409 15.7888 8.54254 15.0316L14.7346 18.8703C14.5695 19.2939 14.4776 19.754 14.4776 20.2355C14.4776 22.3112 16.1648 24 18.2388 24C20.3128 24 22 22.3112 22 20.2355C22 18.1596 20.3128 16.4708 18.2388 16.4708ZM15.8491 4.76466C15.8491 3.44579 16.9212 2.37275 18.2388 2.37275C19.5565 2.37275 20.6285 3.44579 20.6285 4.76466C20.6285 6.08354 19.5565 7.15658 18.2388 7.15658C16.9212 7.15658 15.8491 6.08354 15.8491 4.76466ZM5.76119 14.8919C4.44335 14.8919 3.37131 13.8189 3.37131 12.5C3.37131 11.1811 4.44335 10.1081 5.76119 10.1081C7.07885 10.1081 8.15072 11.1811 8.15072 12.5C8.15072 13.8189 7.07885 14.8919 5.76119 14.8919ZM15.8491 20.2353C15.8491 18.9165 16.9212 17.8434 18.2388 17.8434C19.5565 17.8434 20.6285 18.9165 20.6285 20.2353C20.6285 21.5542 19.5565 22.6273 18.2388 22.6273C16.9212 22.6273 15.8491 21.5542 15.8491 20.2353Z" fill="black"/>
</svg>
